# xmcd CD database file
#
# Track frame offsets:
#	150
#	26559
#	52060
#	64736
#	93838
#	121850
#	152453
#	178853
#	196331
#	224680
#
# Disc length: 3197 seconds
#
# Revision: 0
# Processed by: cddbd v1.4PL0 Copyright (c) Steve Scherf et al.
# Submitted via: Feurio! 1.66 - http://www.feurio.com
#
DISCID=890c7b0a
DTITLE=Arthur Rosenbauer - Blues and Events 1999
DYEAR=1900
DGENRE=Blues
TTITLE0=Max-Blues
TTITLE1=Leberkas-Blues
TTITLE2=Irish-Coffee
TTITLE3=Greyhound-Song
TTITLE4=Bad-Blues
TTITLE5=Borderline
TTITLE6=Time-Song
TTITLE7=Only a Play
TTITLE8=Fall-Down-Blues
TTITLE9=Schluﬂ-Song
EXTD=
EXTT0=
EXTT1=
EXTT2=
EXTT3=
EXTT4=
EXTT5=
EXTT6=
EXTT7=
EXTT8=
EXTT9=
PLAYORDER=
